<svg width="16" height="16" viewBox="0 0 16 16" fill="none" xmlns="http://www.w3.org/2000/svg">
    <path d="M6.00004 1.33337C4.25337 1.33337 2.83337 2.75337 2.83337 4.50004C2.83337 6.21337 4.17337 7.60004 5.92004 7.66004C5.97337 7.65337 6.02671 7.65337 6.06671 7.66004C6.08004 7.66004 6.08671 7.66004 6.10004 7.66004C6.10671 7.66004 6.10671 7.66004 6.11337 7.66004C7.82004 7.60004 9.16004 6.21337 9.16671 4.50004C9.16671 2.75337 7.74671 1.33337 6.00004 1.33337Z" fill="white"/>
    <path d="M9.38664 9.4333C7.52664 8.1933 4.49331 8.1933 2.61997 9.4333C1.77331 9.99996 1.30664 10.7666 1.30664 11.5866C1.30664 12.4066 1.77331 13.1666 2.61331 13.7266C3.54664 14.3533 4.77331 14.6666 5.99997 14.6666C7.22664 14.6666 8.45331 14.3533 9.38664 13.7266C10.2266 13.16 10.6933 12.4 10.6933 11.5733C10.6866 10.7533 10.2266 9.9933 9.38664 9.4333Z" fill="white"/>
    <path d="M13.3266 4.89332C13.4333 6.18665 12.5133 7.31998 11.24 7.47332C11.2333 7.47332 11.2333 7.47332 11.2266 7.47332H11.2066C11.1666 7.47332 11.1266 7.47332 11.0933 7.48665C10.4466 7.51998 9.85328 7.31332 9.40662 6.93332C10.0933 6.31998 10.4866 5.39998 10.4066 4.39998C10.3599 3.85998 10.1733 3.36665 9.89328 2.94665C10.1466 2.81999 10.44 2.73999 10.74 2.71332C12.0466 2.59999 13.2133 3.57332 13.3266 4.89332Z" fill="white"/>
    <path d="M14.66 11.0601C14.6067 11.7067 14.1933 12.2667 13.5 12.6467C12.8333 13.0134 11.9933 13.1867 11.16 13.1667C11.64 12.7334 11.92 12.1934 11.9733 11.6201C12.04 10.7934 11.6467 10.0001 10.86 9.36673C10.4133 9.01339 9.89333 8.73339 9.32666 8.52673C10.8 8.10006 12.6533 8.38673 13.7933 9.30673C14.4067 9.80006 14.72 10.4201 14.66 11.0601Z" fill="white"/>
</svg>
