<svg width="16" height="16" viewBox="0 0 16 16" fill="none" xmlns="http://www.w3.org/2000/svg">
    <path d="M12.8802 1.33325H3.12016C2.14016 1.33325 1.3335 2.13992 1.3335 3.11992V4.87325C1.3335 5.85992 2.14016 6.66658 3.12016 6.66658H12.8735C13.8602 6.66658 14.6668 5.85992 14.6668 4.87992V3.11992C14.6668 2.13992 13.8602 1.33325 12.8802 1.33325ZM4.50016 4.66658C4.50016 4.93992 4.2735 5.16658 4.00016 5.16658C3.72683 5.16658 3.50016 4.93992 3.50016 4.66658V3.33325C3.50016 3.05992 3.72683 2.83325 4.00016 2.83325C4.2735 2.83325 4.50016 3.05992 4.50016 3.33325V4.66658ZM7.16683 4.66658C7.16683 4.93992 6.94016 5.16658 6.66683 5.16658C6.3935 5.16658 6.16683 4.93992 6.16683 4.66658V3.33325C6.16683 3.05992 6.3935 2.83325 6.66683 2.83325C6.94016 2.83325 7.16683 3.05992 7.16683 3.33325V4.66658ZM12.0002 4.49992H9.3335C9.06016 4.49992 8.8335 4.27325 8.8335 3.99992C8.8335 3.72659 9.06016 3.49992 9.3335 3.49992H12.0002C12.2735 3.49992 12.5002 3.72659 12.5002 3.99992C12.5002 4.27325 12.2735 4.49992 12.0002 4.49992Z" fill="#363636"/>
    <path d="M12.8802 9.33325H3.12016C2.14016 9.33325 1.3335 10.1399 1.3335 11.1199V12.8733C1.3335 13.8599 2.14016 14.6666 3.12016 14.6666H12.8735C13.8602 14.6666 14.6602 13.8599 14.6602 12.8799V11.1266C14.6668 10.1399 13.8602 9.33325 12.8802 9.33325ZM4.50016 12.6666C4.50016 12.9399 4.2735 13.1666 4.00016 13.1666C3.72683 13.1666 3.50016 12.9399 3.50016 12.6666V11.3333C3.50016 11.0599 3.72683 10.8333 4.00016 10.8333C4.2735 10.8333 4.50016 11.0599 4.50016 11.3333V12.6666ZM7.16683 12.6666C7.16683 12.9399 6.94016 13.1666 6.66683 13.1666C6.3935 13.1666 6.16683 12.9399 6.16683 12.6666V11.3333C6.16683 11.0599 6.3935 10.8333 6.66683 10.8333C6.94016 10.8333 7.16683 11.0599 7.16683 11.3333V12.6666ZM12.0002 12.4999H9.3335C9.06016 12.4999 8.8335 12.2733 8.8335 11.9999C8.8335 11.7266 9.06016 11.4999 9.3335 11.4999H12.0002C12.2735 11.4999 12.5002 11.7266 12.5002 11.9999C12.5002 12.2733 12.2735 12.4999 12.0002 12.4999Z" fill="#363636"/>
</svg>
