<svg width="16" height="16" viewBox="0 0 16 16" fill="none" xmlns="http://www.w3.org/2000/svg">
    <path d="M12.88 1.33333H3.12004C2.14004 1.33333 1.33337 2.13999 1.33337 3.11999V4.87333C1.33337 5.85999 2.14004 6.66666 3.12004 6.66666H12.8734C13.86 6.66666 14.6667 5.85999 14.6667 4.87999V3.11999C14.6667 2.13999 13.86 1.33333 12.88 1.33333ZM4.50004 4.66666C4.50004 4.93999 4.27337 5.16666 4.00004 5.16666C3.72671 5.16666 3.50004 4.93999 3.50004 4.66666V3.33333C3.50004 3.05999 3.72671 2.83333 4.00004 2.83333C4.27337 2.83333 4.50004 3.05999 4.50004 3.33333V4.66666ZM7.16671 4.66666C7.16671 4.93999 6.94004 5.16666 6.66671 5.16666C6.39337 5.16666 6.16671 4.93999 6.16671 4.66666V3.33333C6.16671 3.05999 6.39337 2.83333 6.66671 2.83333C6.94004 2.83333 7.16671 3.05999 7.16671 3.33333V4.66666ZM12 4.49999H9.33337C9.06004 4.49999 8.83337 4.27333 8.83337 3.99999C8.83337 3.72666 9.06004 3.49999 9.33337 3.49999H12C12.2734 3.49999 12.5 3.72666 12.5 3.99999C12.5 4.27333 12.2734 4.49999 12 4.49999Z" fill="#787878"/>
    <path d="M12.88 9.33333H3.12004C2.14004 9.33333 1.33337 10.14 1.33337 11.12V12.8733C1.33337 13.86 2.14004 14.6667 3.12004 14.6667H12.8734C13.86 14.6667 14.66 13.86 14.66 12.88V11.1267C14.6667 10.14 13.86 9.33333 12.88 9.33333ZM4.50004 12.6667C4.50004 12.94 4.27337 13.1667 4.00004 13.1667C3.72671 13.1667 3.50004 12.94 3.50004 12.6667V11.3333C3.50004 11.06 3.72671 10.8333 4.00004 10.8333C4.27337 10.8333 4.50004 11.06 4.50004 11.3333V12.6667ZM7.16671 12.6667C7.16671 12.94 6.94004 13.1667 6.66671 13.1667C6.39337 13.1667 6.16671 12.94 6.16671 12.6667V11.3333C6.16671 11.06 6.39337 10.8333 6.66671 10.8333C6.94004 10.8333 7.16671 11.06 7.16671 11.3333V12.6667ZM12 12.5H9.33337C9.06004 12.5 8.83337 12.2733 8.83337 12C8.83337 11.7267 9.06004 11.5 9.33337 11.5H12C12.2734 11.5 12.5 11.7267 12.5 12C12.5 12.2733 12.2734 12.5 12 12.5Z" fill="#787878"/>
</svg>
