<svg width="16" height="16" viewBox="0 0 16 16" fill="none" xmlns="http://www.w3.org/2000/svg">
    <path d="M12.88 1.33325H3.12004C2.14004 1.33325 1.33337 2.13992 1.33337 3.11992V4.87325C1.33337 5.85992 2.14004 6.66658 3.12004 6.66658H12.8734C13.86 6.66658 14.6667 5.85992 14.6667 4.87992V3.11992C14.6667 2.13992 13.86 1.33325 12.88 1.33325ZM4.50004 4.66658C4.50004 4.93992 4.27337 5.16658 4.00004 5.16658C3.72671 5.16658 3.50004 4.93992 3.50004 4.66658V3.33325C3.50004 3.05992 3.72671 2.83325 4.00004 2.83325C4.27337 2.83325 4.50004 3.05992 4.50004 3.33325V4.66658ZM7.16671 4.66658C7.16671 4.93992 6.94004 5.16658 6.66671 5.16658C6.39337 5.16658 6.16671 4.93992 6.16671 4.66658V3.33325C6.16671 3.05992 6.39337 2.83325 6.66671 2.83325C6.94004 2.83325 7.16671 3.05992 7.16671 3.33325V4.66658ZM12 4.49992H9.33337C9.06004 4.49992 8.83337 4.27325 8.83337 3.99992C8.83337 3.72659 9.06004 3.49992 9.33337 3.49992H12C12.2734 3.49992 12.5 3.72659 12.5 3.99992C12.5 4.27325 12.2734 4.49992 12 4.49992Z" fill="white"/>
    <path d="M12.88 9.33325H3.12004C2.14004 9.33325 1.33337 10.1399 1.33337 11.1199V12.8733C1.33337 13.8599 2.14004 14.6666 3.12004 14.6666H12.8734C13.86 14.6666 14.66 13.8599 14.66 12.8799V11.1266C14.6667 10.1399 13.86 9.33325 12.88 9.33325ZM4.50004 12.6666C4.50004 12.9399 4.27337 13.1666 4.00004 13.1666C3.72671 13.1666 3.50004 12.9399 3.50004 12.6666V11.3333C3.50004 11.0599 3.72671 10.8333 4.00004 10.8333C4.27337 10.8333 4.50004 11.0599 4.50004 11.3333V12.6666ZM7.16671 12.6666C7.16671 12.9399 6.94004 13.1666 6.66671 13.1666C6.39337 13.1666 6.16671 12.9399 6.16671 12.6666V11.3333C6.16671 11.0599 6.39337 10.8333 6.66671 10.8333C6.94004 10.8333 7.16671 11.0599 7.16671 11.3333V12.6666ZM12 12.4999H9.33337C9.06004 12.4999 8.83337 12.2733 8.83337 11.9999C8.83337 11.7266 9.06004 11.4999 9.33337 11.4999H12C12.2734 11.4999 12.5 11.7266 12.5 11.9999C12.5 12.2733 12.2734 12.4999 12 12.4999Z" fill="white"/>
</svg>
