<svg width="16" height="16" viewBox="0 0 16 16" fill="none" xmlns="http://www.w3.org/2000/svg">
    <path d="M15.1667 11.6667C15.1667 11.94 14.94 12.1667 14.6667 12.1667H10V12.3333C10 13.3333 9.40004 13.6667 8.66671 13.6667H4.66671C3.93337 13.6667 3.33337 13.3333 3.33337 12.3333V12.1667H1.33337C1.06004 12.1667 0.833374 11.94 0.833374 11.6667C0.833374 11.3933 1.06004 11.1667 1.33337 11.1667H3.33337V11C3.33337 10 3.93337 9.66667 4.66671 9.66667H8.66671C9.40004 9.66667 10 10 10 11V11.1667H14.6667C14.94 11.1667 15.1667 11.3933 15.1667 11.6667Z" fill="#787878"/>
    <path d="M15.1667 4.33333C15.1667 4.60666 14.94 4.83333 14.6667 4.83333H12.6667V4.99999C12.6667 5.99999 12.0667 6.33333 11.3334 6.33333H7.33337C6.60004 6.33333 6.00004 5.99999 6.00004 4.99999V4.83333H1.33337C1.06004 4.83333 0.833374 4.60666 0.833374 4.33333C0.833374 4.05999 1.06004 3.83333 1.33337 3.83333H6.00004V3.66666C6.00004 2.66666 6.60004 2.33333 7.33337 2.33333H11.3334C12.0667 2.33333 12.6667 2.66666 12.6667 3.66666V3.83333H14.6667C14.94 3.83333 15.1667 4.05999 15.1667 4.33333Z" fill="#787878"/>
</svg>
