<svg width="16" height="16" viewBox="0 0 16 16" fill="none" xmlns="http://www.w3.org/2000/svg">
    <path d="M15.1667 11.6665C15.1667 11.9398 14.94 12.1665 14.6667 12.1665H10V12.3332C10 13.3332 9.40004 13.6665 8.66671 13.6665H4.66671C3.93337 13.6665 3.33337 13.3332 3.33337 12.3332V12.1665H1.33337C1.06004 12.1665 0.833374 11.9398 0.833374 11.6665C0.833374 11.3932 1.06004 11.1665 1.33337 11.1665H3.33337V10.9998C3.33337 9.99984 3.93337 9.6665 4.66671 9.6665H8.66671C9.40004 9.6665 10 9.99984 10 10.9998V11.1665H14.6667C14.94 11.1665 15.1667 11.3932 15.1667 11.6665Z" fill="white"/>
    <path d="M15.1667 4.3335C15.1667 4.60683 14.94 4.8335 14.6667 4.8335H12.6667V5.00016C12.6667 6.00016 12.0667 6.3335 11.3334 6.3335H7.33337C6.60004 6.3335 6.00004 6.00016 6.00004 5.00016V4.8335H1.33337C1.06004 4.8335 0.833374 4.60683 0.833374 4.3335C0.833374 4.06016 1.06004 3.8335 1.33337 3.8335H6.00004V3.66683C6.00004 2.66683 6.60004 2.3335 7.33337 2.3335H11.3334C12.0667 2.3335 12.6667 2.66683 12.6667 3.66683V3.8335H14.6667C14.94 3.8335 15.1667 4.06016 15.1667 4.3335Z" fill="white"/>
</svg>
