<svg width="16" height="16" viewBox="0 0 16 16" fill="none" xmlns="http://www.w3.org/2000/svg">
    <path d="M15.1668 11.6665C15.1668 11.9398 14.9402 12.1665 14.6668 12.1665H10.0002V12.3332C10.0002 13.3332 9.40016 13.6665 8.66683 13.6665H4.66683C3.9335 13.6665 3.3335 13.3332 3.3335 12.3332V12.1665H1.3335C1.06016 12.1665 0.833496 11.9398 0.833496 11.6665C0.833496 11.3932 1.06016 11.1665 1.3335 11.1665H3.3335V10.9998C3.3335 9.99984 3.9335 9.6665 4.66683 9.6665H8.66683C9.40016 9.6665 10.0002 9.99984 10.0002 10.9998V11.1665H14.6668C14.9402 11.1665 15.1668 11.3932 15.1668 11.6665Z" fill="#363636"/>
    <path d="M15.1668 4.3335C15.1668 4.60683 14.9402 4.8335 14.6668 4.8335H12.6668V5.00016C12.6668 6.00016 12.0668 6.3335 11.3335 6.3335H7.3335C6.60016 6.3335 6.00016 6.00016 6.00016 5.00016V4.8335H1.3335C1.06016 4.8335 0.833496 4.60683 0.833496 4.3335C0.833496 4.06016 1.06016 3.8335 1.3335 3.8335H6.00016V3.66683C6.00016 2.66683 6.60016 2.3335 7.3335 2.3335H11.3335C12.0668 2.3335 12.6668 2.66683 12.6668 3.66683V3.8335H14.6668C14.9402 3.8335 15.1668 4.06016 15.1668 4.3335Z" fill="#363636"/>
</svg>
