<svg width="14" height="14" viewBox="0 0 14 14" fill="none" xmlns="http://www.w3.org/2000/svg">
    <path fill-rule="evenodd" clip-rule="evenodd" d="M11.8342 3.05848C12.0611 3.05848 12.25 3.24689 12.25 3.48664V3.70831C12.25 3.94222 12.0611 4.13647 11.8342 4.13647H2.16641C1.93892 4.13647 1.75 3.94222 1.75 3.70831V3.48664C1.75 3.24689 1.93892 3.05848 2.16641 3.05848H3.86725C4.21275 3.05848 4.51343 2.8129 4.59115 2.4664L4.68022 2.06857C4.81865 1.52666 5.27421 1.16675 5.79557 1.16675H8.20442C8.72012 1.16675 9.18079 1.52666 9.31411 2.03999L9.40942 2.46582C9.48657 2.8129 9.78725 3.05848 10.1333 3.05848H11.8342ZM10.9701 11.1616C11.1476 9.5067 11.4585 5.57507 11.4585 5.5354C11.4699 5.41524 11.4307 5.30149 11.353 5.20991C11.2696 5.12416 11.1641 5.07341 11.0478 5.07341H2.95663C2.83976 5.07341 2.72856 5.12416 2.65141 5.20991C2.57312 5.30149 2.53454 5.41524 2.54021 5.5354C2.54125 5.54269 2.55241 5.68118 2.57106 5.91272C2.65391 6.94128 2.88467 9.80601 3.03378 11.1616C3.1393 12.1603 3.79456 12.7879 4.74369 12.8107C5.4761 12.8276 6.23064 12.8334 7.0022 12.8334C7.72894 12.8334 8.46703 12.8276 9.22213 12.8107C10.2042 12.7937 10.8589 12.1772 10.9701 11.1616Z" fill="#717173"/>
</svg>
