<svg width="14" height="14" viewBox="0 0 14 14" fill="none" xmlns="http://www.w3.org/2000/svg">
    <path fill-rule="evenodd" clip-rule="evenodd" d="M11.8342 3.05836C12.0611 3.05836 12.25 3.24677 12.25 3.48652V3.70818C12.25 3.9421 12.0611 4.13635 11.8342 4.13635H2.16641C1.93892 4.13635 1.75 3.9421 1.75 3.70818V3.48652C1.75 3.24677 1.93892 3.05836 2.16641 3.05836H3.86725C4.21275 3.05836 4.51343 2.81278 4.59115 2.46628L4.68022 2.06845C4.81865 1.52654 5.27421 1.16663 5.79557 1.16663H8.20442C8.72012 1.16663 9.18079 1.52654 9.31411 2.03987L9.40942 2.4657C9.48657 2.81278 9.78725 3.05836 10.1333 3.05836H11.8342ZM10.9701 11.1615C11.1476 9.50658 11.4585 5.57495 11.4585 5.53528C11.4699 5.41512 11.4307 5.30137 11.353 5.20979C11.2696 5.12404 11.1641 5.07329 11.0478 5.07329H2.95663C2.83976 5.07329 2.72856 5.12404 2.65141 5.20979C2.57312 5.30137 2.53454 5.41512 2.54021 5.53528C2.54125 5.54257 2.55241 5.68106 2.57106 5.9126C2.65391 6.94116 2.88467 9.80589 3.03378 11.1615C3.1393 12.1601 3.79456 12.7878 4.74369 12.8105C5.4761 12.8275 6.23064 12.8333 7.0022 12.8333C7.72894 12.8333 8.46703 12.8275 9.22213 12.8105C10.2042 12.7936 10.8589 12.177 10.9701 11.1615Z" fill="white"/>
</svg>
