<svg width="14" height="14" viewBox="0 0 14 14" fill="none" xmlns="http://www.w3.org/2000/svg">
    <path fill-rule="evenodd" clip-rule="evenodd" d="M11.8342 3.05842C12.0611 3.05842 12.25 3.24683 12.25 3.48658V3.70824C12.25 3.94216 12.0611 4.13641 11.8342 4.13641H2.16641C1.93892 4.13641 1.75 3.94216 1.75 3.70824V3.48658C1.75 3.24683 1.93892 3.05842 2.16641 3.05842H3.86725C4.21275 3.05842 4.51343 2.81284 4.59115 2.46634L4.68022 2.06851C4.81865 1.5266 5.27421 1.16669 5.79557 1.16669H8.20442C8.72012 1.16669 9.18079 1.5266 9.31411 2.03993L9.40942 2.46576C9.48657 2.81284 9.78725 3.05842 10.1333 3.05842H11.8342ZM10.9701 11.1615C11.1476 9.50664 11.4585 5.57501 11.4585 5.53534C11.4699 5.41518 11.4307 5.30143 11.353 5.20985C11.2696 5.1241 11.1641 5.07335 11.0478 5.07335H2.95663C2.83976 5.07335 2.72856 5.1241 2.65141 5.20985C2.57312 5.30143 2.53454 5.41518 2.54021 5.53534C2.54125 5.54263 2.55241 5.68112 2.57106 5.91266C2.65391 6.94122 2.88467 9.80595 3.03378 11.1615C3.1393 12.1602 3.79456 12.7879 4.74369 12.8106C5.4761 12.8275 6.23064 12.8334 7.0022 12.8334C7.72894 12.8334 8.46703 12.8275 9.22213 12.8106C10.2042 12.7937 10.8589 12.1771 10.9701 11.1615Z" fill="#717173"/>
</svg>
