<svg width="14" height="14" viewBox="0 0 14 14" fill="none" xmlns="http://www.w3.org/2000/svg">
    <path fill-rule="evenodd" clip-rule="evenodd" d="M4.7236 6.99992C4.7236 8.24436 5.7423 9.25689 7.00002 9.25689C8.25205 9.25689 9.27075 8.24436 9.27075 6.99992C9.27075 5.74982 8.25205 4.73729 7.00002 4.73729C5.7423 4.73729 4.7236 5.74982 4.7236 6.99992ZM10.3464 3.52679C11.3423 4.29608 12.1903 5.42174 12.7992 6.83022C12.8447 6.9377 12.8447 7.06214 12.7992 7.16396C11.5813 9.98093 9.41303 11.6666 7.00002 11.6666H6.99433C4.58701 11.6666 2.41872 9.98093 1.20083 7.16396C1.1553 7.06214 1.1553 6.9377 1.20083 6.83022C2.41872 4.01325 4.58701 2.33325 6.99433 2.33325H7.00002C8.20652 2.33325 9.35043 2.75184 10.3464 3.52679ZM7.0007 8.40716C7.78038 8.40716 8.41778 7.77362 8.41778 6.99867C8.41778 6.21807 7.78038 5.58453 7.0007 5.58453C6.93241 5.58453 6.86412 5.59019 6.80152 5.6015C6.77875 6.22372 6.26656 6.7215 5.63485 6.7215H5.60639C5.58932 6.81201 5.57794 6.90251 5.57794 6.99867C5.57794 7.77362 6.21534 8.40716 7.0007 8.40716Z" fill="#717173"/>
</svg>
