<svg width="16" height="16" viewBox="0 0 16 16" fill="none" xmlns="http://www.w3.org/2000/svg">
    <path fill-rule="evenodd" clip-rule="evenodd" d="M12.4714 5.86426C12.4714 6.70155 12.6927 7.19506 13.1797 7.76377C13.5488 8.18275 13.6667 8.72057 13.6667 9.30406C13.6667 9.88687 13.4752 10.4401 13.0916 10.8893C12.5894 11.4278 11.8811 11.7716 11.1582 11.8314C10.1107 11.9207 9.06248 11.9959 8.00037 11.9959C6.9376 11.9959 5.89007 11.9509 4.84254 11.8314C4.11901 11.7716 3.41072 11.4278 2.90915 10.8893C2.52552 10.4401 2.33337 9.88687 2.33337 9.30406C2.33337 8.72057 2.45197 8.18275 2.82037 7.76377C3.3226 7.19506 3.52932 6.70155 3.52932 5.86426V5.58024C3.52932 4.45893 3.80893 3.72572 4.3847 3.00795C5.24075 1.96117 6.61294 1.33337 7.97056 1.33337H8.03019C9.41696 1.33337 10.8335 1.99139 11.675 3.08315C12.221 3.78615 12.4714 4.48848 12.4714 5.58024V5.86426ZM6.04916 13.3739C6.04916 13.0382 6.35725 12.8844 6.64216 12.8186C6.97544 12.7481 9.00623 12.7481 9.3395 12.8186C9.62441 12.8844 9.93251 13.0382 9.93251 13.3739C9.91594 13.6935 9.72843 13.9769 9.46937 14.1568C9.13344 14.4187 8.73921 14.5845 8.32709 14.6443C8.09916 14.6738 7.87521 14.6745 7.65524 14.6443C7.24245 14.5845 6.84822 14.4187 6.51296 14.1562C6.25323 13.9769 6.06572 13.6935 6.04916 13.3739Z" fill="#787878"/>
</svg>
