<svg width="16" height="16" viewBox="0 0 16 16" fill="none" xmlns="http://www.w3.org/2000/svg">
    <path fill-rule="evenodd" clip-rule="evenodd" d="M7.22335 8.00441L7.22437 8.24047C7.23248 9.17679 7.28892 10.0122 7.38626 10.5416C7.38626 10.5511 7.49244 11.0762 7.56008 11.251C7.66626 11.5036 7.85826 11.718 8.09898 11.8539C8.29171 11.9508 8.49389 12 8.70552 12C8.87188 11.9923 9.14624 11.9086 9.34206 11.8384L9.50478 11.776C10.5826 11.3479 12.6429 9.94896 13.432 9.09345L13.4902 9.03365L13.7498 8.75344C13.9135 8.53901 14 8.27685 14 7.99486C14 7.74224 13.9229 7.48963 13.7687 7.28548C13.7226 7.21934 13.6482 7.13449 13.582 7.06279L13.3293 6.79826C12.4597 5.91715 10.5768 4.68122 9.60078 4.27171C9.60078 4.2629 8.99424 4.00955 8.70552 4H8.66697C8.22407 4 7.81026 4.25262 7.59862 4.66091C7.54081 4.77254 7.48535 4.99119 7.44317 5.18322L7.36735 5.5458C7.28081 6.12888 7.22335 7.02332 7.22335 8.00441ZM3.00217 6.98777C2.44872 6.98777 2 7.44087 2 7.99971C2 8.55855 2.44872 9.01164 3.00217 9.01164L5.46832 8.79354C5.9025 8.79354 6.25449 8.43885 6.25449 7.99971C6.25449 7.5613 5.9025 7.20587 5.46832 7.20587L3.00217 6.98777Z" fill="white"/>
</svg>
